<svg xmlns="http://www.w3.org/2000/svg" xmlns:xlink="http://www.w3.org/1999/xlink"
viewBox="-123.7508316040039 -56.34394836425781 150.97339248657227 144.26602935791016" width="150.97339248657227mm" height="144.26602935791016mm"
>
<path fill="#8080F7" d="M-92.5404281616211,76.39103698730469L-113.359130859375,54.34785079956055L-113.7508316040039,44.29047775268555L-111.23902130126953,41.22765350341797L-111.17561340332031,41.17444610595703L-101.71257019042969,33.234004974365234L-101.64932250976562,33.18093490600586L-100.60962677001953,32.30598449707031L-100.67546081542969,32.29126739501953L-100.93204498291016,32.21672439575195L-101.18344116210938,32.12621307373047L-101.42865753173828,32.02009963989258L-101.6667251586914,31.8987979888916L-101.89672088623047,31.762784957885742L-102.11771392822266,31.612600326538086L-102.3288345336914,31.448835372924805L-102.52925872802734,31.272136688232422L-102.71819305419922,31.083202362060547L-102.89488983154297,30.882776260375977L-103.05865478515625,30.67165184020996L-103.2088394165039,30.45066261291504L-103.3448486328125,30.220678329467773L-103.46615600585938,29.982606887817383L-103.57227325439453,29.737388610839844L-103.66206359863281,29.48680877685547L-103.73666381835938,29.230268478393555L-103.79499816894531,28.96954917907715L-103.83686065673828,28.7056827545166L-103.86206817626953,28.439706802368164L-103.87051391601562,28.17267417907715L-103.86219024658203,27.905637741088867L-103.83740997314453,27.63860321044922L-103.79560852050781,27.37470054626465L-103.7373275756836,27.113941192626953L-103.66278076171875,26.857358932495117L-103.57227325439453,26.605960845947266L-103.46615600585938,26.360742568969727L-103.3448486328125,26.122671127319336L-103.2088394165039,25.89268684387207L-103.05865478515625,25.67169761657715L-102.89488983154297,25.4605712890625L-102.71819305419922,25.260147094726562L-102.52925872802734,25.071210861206055L-102.3288345336914,24.894514083862305L-102.11771392822266,24.730749130249023L-101.89672088623047,24.580564498901367L-101.6667251586914,24.444551467895508L-101.42865753173828,24.32324981689453L-101.18344116210938,24.217132568359375L-100.93204498291016,24.126625061035156L-100.40840911865234,23.97074317932129L-101.77294158935547,15.275337219238281L-102.21565246582031,9.544371604919434L-102.21565246582031,-8.05268669128418L-101.77294158935547,-13.76220703125L-101.15291595458984,-17.691064834594727L-102.4407958984375,-18.403671264648438L-102.67079162597656,-18.539684295654297L-102.89178466796875,-18.689868927001953L-103.1029052734375,-18.853633880615234L-103.30332946777344,-19.030332565307617L-103.49226379394531,-19.219266891479492L-103.66896057128906,-19.419692993164062L-103.83272552490234,-19.630817413330078L-103.98291015625,-19.851808547973633L-104.1189193725586,-20.081790924072266L-104.24022674560547,-20.319862365722656L-104.34634399414062,-20.565080642700195L-104.43685150146484,-20.816478729248047L-104.51139831542969,-21.07306480407715L-104.5696792602539,-21.33382225036621L-104.61148071289062,-21.59772491455078L-104.63662719726562,-21.863733291625977L-104.64501190185547,-22.130794525146484L-104.63662719726562,-22.397855758666992L-104.61148071289062,-22.66386604309082L-104.5696792602539,-22.92776870727539L-104.51139831542969,-23.188528060913086L-104.43685150146484,-23.445110321044922L-104.34634399414062,-23.696508407592773L-104.24022674560547,-23.941726684570312L-104.1189193725586,-24.179798126220703L-103.98291015625,-24.40978240966797L-103.83296966552734,-24.629711151123047L-103.66926574707031,-24.84085464477539L-103.49263763427734,-25.041301727294922L-103.30376434326172,-25.230260848999023L-103.10340118408203,-25.4069881439209L-102.89234161376953,-25.57078742980957L-102.6714096069336,-25.72100830078125L-102.4407958984375,-25.85791778564453L-102.20272827148438,-25.979219436645508L-101.95751190185547,-26.085336685180664L-101.70611572265625,-26.175844192504883L-101.44953155517578,-26.250389099121094L-101.18877410888672,-26.30867576599121L-100.92487335205078,-26.350473403930664L-100.65885925292969,-26.375619888305664L-100.39179992675781,-26.38401222229004L-100.12474060058594,-26.375619888305664L-99.8575210571289,-26.35028076171875L-99.78436279296875,-26.338695526123047L-99.11067199707031,-30.599382400512695L-91.11067199707031,-38.59938430786133L-89.49533081054688,-42.87748336791992L-75.34185028076172,-43.05685806274414L-75.33756256103516,-43.05691146850586L-73.38465118408203,-43.07951354980469L-71.29182434082031,-43.10373306274414L-56.37710952758789,-43.260135650634766L-53.818641662597656,-46.21006393432617L-38.090267181396484,-46.34394836425781L-31.75583839416504,-43.4697151184082L-25.79383659362793,-43.5096549987793L-25.76262855529785,-43.533512115478516L-25.545297622680664,-43.681209564208984L-25.31531524658203,-43.81721878051758L-25.07724380493164,-43.93852615356445L-24.8320255279541,-44.044639587402344L-24.58062744140625,-44.13514709472656L-24.32404327392578,-44.209693908691406L-24.063283920288086,-44.267982482910156L-23.799381256103516,-44.309776306152344L-23.53337287902832,-44.334922790527344L-23.266311645507812,-44.343318939208984L-22.999250411987305,-44.334922790527344L-22.733240127563477,-44.309776306152344L-22.469337463378906,-44.26797866821289L-22.208580017089844,-44.209693908691406L-21.951995849609375,-44.13514709472656L-21.700597763061523,-44.044639587402344L-21.455379486083984,-43.93852615356445L-21.217308044433594,-43.81721878051758L-20.986024856567383,-43.680328369140625L-20.784273147583008,-43.543216705322266L-15.511540412902832,-43.57854080200195L-13.088441848754883,-41.656917572021484L-8.151671409606934,-30.512264251708984L7.565473556518555,-30.590919494628906L9.429189682006836,-28.66602897644043L16.548561096191406,-21.013019561767578L15.307241439819336,-4.284017086029053L14.998579025268555,4.201655864715576L14.998419761657715,9.034798622131348L15.018346786499023,9.044952392578125L15.248331069946289,9.180965423583984L15.469322204589844,9.33115005493164L15.68044662475586,9.494915008544922L15.880870819091797,9.671612739562988L16.069807052612305,9.86054801940918L16.246503829956055,10.060972213745117L16.41027069091797,10.272096633911133L16.560455322265625,10.493087768554688L16.69646644592285,10.723072052001953L16.81777000427246,10.961143493652344L16.923885345458984,11.206360816955566L17.014394760131836,11.457758903503418L17.088937759399414,11.714343070983887L17.14722442626953,11.975101470947266L17.189023971557617,12.239005088806152L17.214168548583984,12.505012512207031L17.22256088256836,12.772074699401855L17.214168548583984,13.03913688659668L17.189023971557617,13.305145263671875L17.14722442626953,13.569049835205078L17.088937759399414,13.829808235168457L17.014394760131836,14.086390495300293L16.923885345458984,14.337788581848145L16.81777000427246,14.5830078125L16.69646644592285,14.821078300476074L16.560455322265625,15.051061630249023L16.41027069091797,15.272052764892578L16.246503829956055,15.483177185058594L16.069807052612305,15.683602333068848L15.880870819091797,15.872537612915039L15.68044662475586,16.04923439025879L15.469322204589844,16.213001251220703L15.248331069946289,16.36318588256836L15.017718315124512,16.499515533447266L14.998579025268555,16.509267807006836L14.998579025268555,21.499019622802734L15.30724048614502,30.02226448059082L16.548561096191406,46.90237045288086L9.429189682006836,54.701820373535156L7.565473556518555,56.399845123291016L-9.25660514831543,56.48402786254883L-21.107255935668945,43.44970703125L-29.73729133605957,43.50752258300781L-34.35176086425781,62.760040283203125L-33.90287399291992,64.11856842041016L-33.82832717895508,64.37515258789062L-33.77003860473633,64.63591003417969L-33.72824478149414,64.89981079101562L-33.70309829711914,65.16582489013672L-33.6947021484375,65.4328842163086L-33.70309829711914,65.69994354248047L-33.72824478149414,65.96595764160156L-33.77003860473633,66.2298583984375L-33.82832717895508,66.49061584472656L-33.90287399291992,66.74720001220703L-33.99338150024414,66.99859619140625L-34.09949493408203,67.24381256103516L-34.220802307128906,67.48188781738281L-34.3568115234375,67.71187591552734L-34.506996154785156,67.93286895751953L-34.67076110839844,68.14398956298828L-34.84746170043945,68.34441375732422L-35.03639602661133,68.5333480834961L-35.236820220947266,68.71004486083984L-35.44794464111328,68.87380981445312L-35.6689338684082,69.02399444580078L-35.89891815185547,69.16000366210938L-36.13698959350586,69.28131103515625L-36.382205963134766,69.3874282836914L-36.633602142333984,69.47793579101562L-36.89019012451172,69.55248260498047L-37.15095138549805,69.61076354980469L-37.41485595703125,69.6525650024414L-37.68085861206055,69.6777114868164L-37.94792175292969,69.68609619140625L-38.21498489379883,69.6777114868164L-38.48099136352539,69.6525650024414L-38.744895935058594,69.61076354980469L-39.00565719604492,69.55248260498047L-39.18156051635742,69.50137329101562L-53.82283020019531,72.08301544189453L-73.10368347167969,70.57620239257812L-76.01526641845703,72.91091918945312L-81.9874496459961,77.92208099365234Z M-100.85697937011719,29.335405349731445L-100.78145599365234,29.410921096801758L-100.70134735107422,29.48154640197754L-100.67724609375,29.500242233276367L-100.6169662475586,29.5470027923584L-100.52863311767578,29.607032775878906L-100.43670654296875,29.661396026611328L-100.341552734375,29.709880828857422L-100.24353790283203,29.752294540405273L-100.14305877685547,29.788471221923828L-100.0405044555664,29.818265914916992L-99.936279296875,29.841562271118164L-99.83079528808594,29.85826873779297L-99.72447204589844,29.86832046508789L-99.61772918701172,29.871675491333008L-99.510986328125,29.86832046508789L-99.4046630859375,29.8582706451416L-99.29917907714844,29.841562271118164L-99.19495391845703,29.818265914916992L-99.09239959716797,29.788471221923828L-98.9919204711914,29.752294540405273L-98.89390563964844,29.709880828857422L-98.79875183105469,29.661396026611328L-98.70682525634766,29.607032775878906L-98.61849212646484,29.5470027923584L-98.5694351196289,29.508949279785156L-98.53411102294922,29.48154640197754L-98.4540023803711,29.410921096801758L-98.37847900390625,29.335405349731445L-98.31685638427734,29.2655086517334L-98.30785369873047,29.255294799804688L-98.24240112304688,29.170909881591797L-98.182373046875,29.08258056640625L-98.1445541381836,29.01863670349121L-98.12800598144531,28.99065589904785L-98.07952117919922,28.89550018310547L-98.037109375,28.797487258911133L-98.02685546875,28.768999099731445L-98.00093078613281,28.697004318237305L-97.97113800048828,28.59444808959961L-97.9538803100586,28.517250061035156L-97.94783782958984,28.490222930908203L-97.93113708496094,28.384740829467773L-97.92108154296875,28.278419494628906L-97.9206314086914,28.264070510864258L-97.91773223876953,28.171674728393555L-97.92108154296875,28.064929962158203L-97.92626953125,28.010101318359375L-97.93113708496094,27.958608627319336L-97.94783782958984,27.853126525878906L-97.97113800048828,27.7489013671875L-98.00093078613281,27.646345138549805L-98.037109375,27.545862197875977L-98.07952117919922,27.44784927368164L-98.12800598144531,27.352693557739258L-98.182373046875,27.26076889038086L-98.24240112304688,27.172439575195312L-98.30785369873047,27.088054656982422L-98.37847900390625,27.007944107055664L-98.4540023803711,26.93242835998535L-98.53411102294922,26.86180305480957L-98.61849212646484,26.79634666442871L-98.70682525634766,26.736316680908203L-98.79874420166016,26.68195343017578L-98.89390563964844,26.633468627929688L-98.9919204711914,26.591054916381836L-99.09239959716797,26.55487823486328L-99.19495391845703,26.525083541870117L-99.29917907714844,26.501787185668945L-99.4046630859375,26.48508071899414L-99.510986328125,26.47502899169922L-99.61772918701172,26.4716739654541L-99.72447204589844,26.47502899169922L-99.83079528808594,26.485078811645508L-99.936279296875,26.501787185668945L-100.0405044555664,26.525083541870117L-100.14305877685547,26.55487823486328L-100.24353790283203,26.591054916381836L-100.341552734375,26.633468627929688L-100.43670654296875,26.68195343017578L-100.52863311767578,26.736316680908203L-100.6169662475586,26.79634666442871L-100.70134735107422,26.861801147460938L-100.78299713134766,26.933969497680664L-100.85697937011719,27.007944107055664L-100.92760467529297,27.088054656982422L-100.99305725097656,27.172439575195312L-101.05308532714844,27.26076889038086L-101.10745239257812,27.352693557739258L-101.15593719482422,27.44784927368164L-101.19834899902344,27.545862197875977L-101.23452758789062,27.646345138549805L-101.26432037353516,27.7489013671875L-101.2876205444336,27.853126525878906L-101.30313110351562,27.95108985900879L-101.3043212890625,27.958608627319336L-101.31437683105469,28.064929962158203L-101.3177261352539,28.171674728393555L-101.31645202636719,28.212312698364258L-101.31437683105469,28.278417587280273L-101.3043212890625,28.384740829467773L-101.29021453857422,28.473861694335938L-101.2876205444336,28.490222930908203L-101.26432037353516,28.59444808959961L-101.23452758789062,28.697004318237305L-101.22099304199219,28.734588623046875L-101.19834899902344,28.7974853515625L-101.15593719482422,28.89550018310547L-101.10588073730469,28.993316650390625L-101.05308532714844,29.08258056640625L-100.99305725097656,29.170909881591797L-100.93254852294922,29.248924255371094L-100.92760467529297,29.255294799804688Z M-39.383277893066406,66.34378814697266L-39.32324981689453,66.43212127685547L-39.25779342651367,66.5165023803711L-39.18716812133789,66.59661102294922L-39.179561614990234,66.60421752929688L-39.11165237426758,66.67213439941406L-39.03154373168945,66.74275970458984L-38.9471549987793,66.80821228027344L-38.858829498291016,66.86824035644531L-38.766902923583984,66.922607421875L-38.67174530029297,66.9710922241211L-38.573734283447266,67.01350402832031L-38.47325134277344,67.0496826171875L-38.370697021484375,67.07947540283203L-38.26647186279297,67.10277557373047L-38.160987854003906,67.11947631835938L-38.054664611816406,67.12953186035156L-37.94792175292969,67.13288116455078L-37.84117889404297,67.12953186035156L-37.73485565185547,67.11947631835938L-37.62937545776367,67.10277557373047L-37.525150299072266,67.07947540283203L-37.42259216308594,67.0496826171875L-37.32210922241211,67.01350402832031L-37.224098205566406,66.9710922241211L-37.12894058227539,66.922607421875L-37.037017822265625,66.86824035644531L-36.94868850708008,66.80821228027344L-36.86429977416992,66.74275970458984L-36.7841911315918,66.67213439941406L-36.708675384521484,66.59661102294922L-36.6380500793457,66.5165023803711L-36.572593688964844,66.43212127685547L-36.51256561279297,66.34378814697266L-36.47962951660156,66.28810119628906L-36.45820236206055,66.25186920166016L-36.40971755981445,66.15670776367188L-36.36730194091797,66.0586929321289L-36.33112716674805,65.95821380615234L-36.30133056640625,65.85565948486328L-36.27803421020508,65.75143432617188L-36.26132583618164,65.64595031738281L-36.251277923583984,65.53962707519531L-36.247920989990234,65.4328842163086L-36.251277923583984,65.32614135742188L-36.26132583618164,65.21981811523438L-36.27803421020508,65.11433410644531L-36.30133056640625,65.0101089477539L-36.33112716674805,64.90755462646484L-36.36730194091797,64.80707550048828L-36.40971374511719,64.70906066894531L-36.45819854736328,64.61389923095703L-36.51256561279297,64.52198028564453L-36.572593688964844,64.43364715576172L-36.6380500793457,64.3492660522461L-36.708675384521484,64.26915740966797L-36.7841911315918,64.19363403320312L-36.86429977416992,64.12300872802734L-36.94868850708008,64.05755615234375L-37.037017822265625,63.997528076171875L-37.12894058227539,63.94316101074219L-37.224098205566406,63.89468002319336L-37.32210922241211,63.852264404296875L-37.42259216308594,63.81608963012695L-37.525150299072266,63.786293029785156L-37.629371643066406,63.762996673583984L-37.73485565185547,63.74628829956055L-37.84117889404297,63.73624038696289L-37.94792175292969,63.73288345336914L-38.054664611816406,63.73624038696289L-38.160987854003906,63.74628829956055L-38.2664680480957,63.762996673583984L-38.37069320678711,63.786293029785156L-38.47325134277344,63.81608963012695L-38.573734283447266,63.852264404296875L-38.67174530029297,63.894676208496094L-38.766902923583984,63.94316101074219L-38.85882568359375,63.997528076171875L-38.9471549987793,64.05755615234375L-39.03154373168945,64.12300872802734L-39.11165237426758,64.19363403320312L-39.18716812133789,64.26915740966797L-39.25779342651367,64.3492660522461L-39.32324981689453,64.43364715576172L-39.383277893066406,64.52198028564453L-39.437644958496094,64.61389923095703L-39.48612976074219,64.70906066894531L-39.528541564941406,64.80707550048828L-39.56471633911133,64.90755462646484L-39.594512939453125,65.0101089477539L-39.6178092956543,65.11433410644531L-39.634517669677734,65.21981811523438L-39.64456558227539,65.32614135742188L-39.64792251586914,65.4328842163086L-39.64456558227539,65.53962707519531L-39.634517669677734,65.64595031738281L-39.6178092956543,65.75143432617188L-39.594512939453125,65.85565948486328L-39.56471633911133,65.95821380615234L-39.528541564941406,66.0586929321289L-39.48612594604492,66.15670776367188L-39.437644958496094,66.25186157226562Z M-101.76712799072266,-21.131559371948242L-101.70167541503906,-21.04717445373535L-101.63105010986328,-20.967063903808594L-101.55552673339844,-20.89154815673828L-101.47286224365234,-20.818939208984375L-101.39103698730469,-20.75546646118164L-101.30270385742188,-20.695436477661133L-101.21077728271484,-20.64107322692871L-101.1156234741211,-20.592588424682617L-101.01760864257812,-20.550174713134766L-100.91712951660156,-20.51399803161621L-100.8145751953125,-20.484203338623047L-100.7103500366211,-20.460906982421875L-100.60486602783203,-20.444198608398438L-100.49854278564453,-20.43414878845215L-100.39179992675781,-20.43079376220703L-100.2850570678711,-20.43414878845215L-100.1787338256836,-20.444198608398438L-100.07324981689453,-20.460906982421875L-99.96902465820312,-20.484203338623047L-99.86647033691406,-20.51399803161621L-99.7659912109375,-20.550174713134766L-99.66797637939453,-20.592588424682617L-99.57282257080078,-20.64107322692871L-99.48089599609375,-20.695436477661133L-99.39256286621094,-20.75546646118164L-99.30818176269531,-20.8209228515625L-99.22807312011719,-20.89154815673828L-99.15254974365234,-20.967063903808594L-99.08192443847656,-21.04717445373535L-99.01647186279297,-21.131559371948242L-98.9564437866211,-21.21988868713379L-98.9020767211914,-21.311813354492188L-98.85359191894531,-21.40696907043457L-98.8111801147461,-21.504981994628906L-98.7750015258789,-21.605464935302734L-98.74520874023438,-21.70802116394043L-98.72190856933594,-21.812246322631836L-98.70520782470703,-21.917728424072266L-98.69515228271484,-22.024049758911133L-98.69180297851562,-22.130794525146484L-98.69515228271484,-22.237539291381836L-98.70520782470703,-22.343860626220703L-98.72190856933594,-22.449342727661133L-98.74520874023438,-22.55356788635254L-98.7750015258789,-22.656124114990234L-98.8111801147461,-22.756607055664062L-98.85359191894531,-22.8546199798584L-98.9020767211914,-22.94977569580078L-98.9564437866211,-23.04170036315918L-99.01647186279297,-23.130029678344727L-99.08192443847656,-23.214414596557617L-99.15254974365234,-23.294525146484375L-99.22807312011719,-23.370040893554688L-99.30818176269531,-23.44066619873047L-99.39256286621094,-23.506122589111328L-99.48089599609375,-23.566152572631836L-99.57281494140625,-23.620515823364258L-99.66797637939453,-23.66900062561035L-99.7659912109375,-23.711414337158203L-99.86647033691406,-23.747591018676758L-99.96902465820312,-23.777385711669922L-100.07324981689453,-23.800682067871094L-100.1787338256836,-23.81739044189453L-100.2850570678711,-23.82744026184082L-100.39179992675781,-23.830795288085938L-100.49854278564453,-23.82744026184082L-100.60486602783203,-23.81739044189453L-100.7103500366211,-23.800682067871094L-100.8145751953125,-23.777385711669922L-100.91712951660156,-23.747591018676758L-101.01760864257812,-23.711414337158203L-101.1156234741211,-23.66900062561035L-101.21077728271484,-23.620515823364258L-101.30270385742188,-23.566152572631836L-101.39103698730469,-23.506122589111328L-101.47541809082031,-23.4406681060791L-101.55552673339844,-23.370040893554688L-101.63105010986328,-23.294525146484375L-101.70167541503906,-23.214414596557617L-101.76712799072266,-23.130029678344727L-101.82715606689453,-23.04170036315918L-101.88152313232422,-22.94977569580078L-101.93000793457031,-22.8546199798584L-101.97241973876953,-22.756607055664062L-102.00859832763672,-22.656124114990234L-102.03839111328125,-22.55356788635254L-102.06169128417969,-22.449342727661133L-102.0783920288086,-22.343860626220703L-102.08844757080078,-22.237539291381836L-102.091796875,-22.130794525146484L-102.08844757080078,-22.024051666259766L-102.0783920288086,-21.917728424072266L-102.06169128417969,-21.812246322631836L-102.03839111328125,-21.70802116394043L-102.00859832763672,-21.605464935302734L-101.97241973876953,-21.50498390197754L-101.93000793457031,-21.40696907043457L-101.88152313232422,-21.311813354492188L-101.82715606689453,-21.21988868713379Z M14.279216766357422,11.688453674316406L14.20859146118164,11.608345031738281L14.133073806762695,11.532828330993652L14.05296516418457,11.462202072143555L13.968579292297363,11.396745681762695L13.8802490234375,11.33671760559082L13.788325309753418,11.282353401184082L13.693169593811035,11.233868598937988L13.595155715942383,11.191454887390137L13.494672775268555,11.155278205871582L13.39211654663086,11.125483512878418L13.28789234161377,11.10218620300293L13.223044395446777,11.091915130615234L13.182411193847656,11.085479736328125L13.076087951660156,11.07542896270752L12.969344139099121,11.072074890136719L12.862600326538086,11.07542896270752L12.756278038024902,11.085479736328125L12.650795936584473,11.10218620300293L12.598319053649902,11.113916397094727L12.594441413879395,11.11478328704834L12.546571731567383,11.125483512878418L12.444015502929688,11.155278205871582L12.34353256225586,11.191454887390137L12.245519638061523,11.233868598937988L12.150362968444824,11.282353401184082L12.058439254760742,11.33671760559082L11.970108985900879,11.396745681762695L11.885723114013672,11.462202072143555L11.805614471435547,11.532827377319336L11.730096817016602,11.608345031738281L11.65947151184082,11.688453674316406L11.594015121459961,11.772839546203613L11.533987045288086,11.86116886138916L11.479622840881348,11.953093528747559L11.431138038635254,12.048250198364258L11.388724327087402,12.146263122558594L11.352547645568848,12.246746063232422L11.322752952575684,12.3493013381958L11.299455642700195,12.453526496887207L11.28274917602539,12.55900764465332L11.272698402404785,12.66533088684082L11.269344329833984,12.772074699401855L11.272698402404785,12.87881851196289L11.28274917602539,12.985140800476074L11.299455642700195,13.090622901916504L11.322752952575684,13.194847106933594L11.352547645568848,13.297403335571289L11.388723373413086,13.397886276245117L11.431138038635254,13.495899200439453L11.479622840881348,13.591055870056152L11.514406204223633,13.649870872497559L11.533987045288086,13.682979583740234L11.594015121459961,13.771309852600098L11.65947151184082,13.855695724487305L11.694486618041992,13.89541244506836L11.730097770690918,13.93580436706543L11.80561351776123,14.011321067810059L11.885723114013672,14.081947326660156L11.956713676452637,14.13701343536377L11.970108985900879,14.147403717041016L12.058438301086426,14.20743179321289L12.150362968444824,14.261795997619629L12.245518684387207,14.310280799865723L12.34353256225586,14.352694511413574L12.401350975036621,14.373510360717773L12.444015502929688,14.388871192932129L12.546570777893066,14.418665885925293L12.650794982910156,14.441963195800781L12.756277084350586,14.458669662475586L12.862600326538086,14.468720436096191L12.969344139099121,14.472074508666992L13.076087951660156,14.468720436096191L13.18241024017334,14.458669662475586L13.28789234161377,14.441963195800781L13.39211654663086,14.418665885925293L13.494672775268555,14.388871192932129L13.565818786621094,14.363256454467773L13.595155715942383,14.352694511413574L13.693168640136719,14.310280799865723L13.788325309753418,14.261795997619629L13.8802490234375,14.20743179321289L13.968579292297363,14.147403717041016L14.0098295211792,14.115406036376953L14.05296516418457,14.081947326660156L14.133073806762695,14.011322021484375L14.208590507507324,13.935805320739746L14.272771835327148,13.863005638122559L14.279216766357422,13.855695724487305L14.344673156738281,13.771309852600098L14.404701232910156,13.682979583740234L14.449807167053223,13.606711387634277L14.459065437316895,13.591056823730469L14.507550239562988,13.49590015411377L14.54996395111084,13.397886276245117L14.568095207214355,13.347524642944336L14.586140632629395,13.297403335571289L14.615935325622559,13.19484806060791L14.639723777770996,13.087519645690918L14.655939102172852,12.98514175415039L14.665989875793457,12.87881851196289L14.669343948364258,12.772074699401855L14.665989875793457,12.66533088684082L14.655939102172852,12.559008598327637L14.639232635498047,12.453526496887207L14.615935325622559,12.349302291870117L14.586140632629395,12.246746063232422L14.54996395111084,12.146263122558594L14.507550239562988,12.048250198364258L14.459065437316895,11.953093528747559L14.404701232910156,11.86116886138916L14.344673156738281,11.772839546203613Z M-22.18269157409668,-41.39997100830078L-22.26707649230957,-41.46542739868164L-22.355405807495117,-41.525455474853516L-22.447330474853516,-41.57981872558594L-22.5424861907959,-41.62830352783203L-22.640499114990234,-41.670719146728516L-22.740982055664062,-41.70689392089844L-22.843538284301758,-41.736690521240234L-22.947763442993164,-41.759986877441406L-23.053245544433594,-41.776695251464844L-23.15956687927246,-41.7867431640625L-23.266311645507812,-41.79010009765625L-23.373056411743164,-41.7867431640625L-23.47937774658203,-41.776695251464844L-23.58485984802246,-41.759986877441406L-23.689085006713867,-41.736690521240234L-23.791641235351562,-41.70689392089844L-23.89212417602539,-41.670719146728516L-23.990137100219727,-41.62830352783203L-24.08529281616211,-41.5798225402832L-24.177217483520508,-41.525455474853516L-24.265546798706055,-41.46542739868164L-24.349931716918945,-41.39997100830078L-24.430042266845703,-41.329345703125L-24.505558013916016,-41.25382995605469L-24.576183319091797,-41.17372131347656L-24.641639709472656,-41.089332580566406L-24.701669692993164,-41.00100326538086L-24.756032943725586,-40.909080505371094L-24.80451774597168,-40.81392288208008L-24.84693145751953,-40.715911865234375L-24.883108139038086,-40.61542892456055L-24.91290283203125,-40.51287078857422L-24.936199188232422,-40.40864944458008L-24.95290756225586,-40.303165435791016L-24.96295738220215,-40.196842193603516L-24.966312408447266,-40.0900993347168L-24.96295738220215,-39.98335647583008L-24.95290756225586,-39.87703323364258L-24.936199188232422,-39.77155303955078L-24.91290283203125,-39.667327880859375L-24.883108139038086,-39.56476974487305L-24.84693145751953,-39.46428680419922L-24.80451774597168,-39.366275787353516L-24.756032943725586,-39.2711181640625L-24.701669692993164,-39.179195404052734L-24.641639709472656,-39.09086608886719L-24.57618522644043,-39.00647735595703L-24.505558013916016,-38.926368713378906L-24.430042266845703,-38.850852966308594L-24.349931716918945,-38.78022766113281L-24.265546798706055,-38.71477127075195L-24.177217483520508,-38.65474319458008L-24.08529281616211,-38.600379943847656L-23.990137100219727,-38.55189514160156L-23.89212417602539,-38.50947952270508L-23.791641235351562,-38.473304748535156L-23.689085006713867,-38.44350814819336L-23.58485984802246,-38.42021179199219L-23.47937774658203,-38.40350341796875L-23.373056411743164,-38.393455505371094L-23.266311645507812,-38.390098571777344L-23.15956687927246,-38.393455505371094L-23.053245544433594,-38.40350341796875L-22.947763442993164,-38.42021179199219L-22.843538284301758,-38.44350814819336L-22.740982055664062,-38.473304748535156L-22.640499114990234,-38.50947952270508L-22.54248809814453,-38.5518913269043L-22.447330474853516,-38.60037612915039L-22.355405807495117,-38.65474319458008L-22.26707649230957,-38.71477127075195L-22.18269157409668,-38.78022766113281L-22.102581024169922,-38.850852966308594L-22.02706527709961,-38.926368713378906L-21.956439971923828,-39.00647735595703L-21.89098358154297,-39.09086608886719L-21.83095359802246,-39.179195404052734L-21.77659034729004,-39.2711181640625L-21.728105545043945,-39.366275787353516L-21.685691833496094,-39.46428680419922L-21.64951515197754,-39.56476974487305L-21.619720458984375,-39.66732406616211L-21.596424102783203,-39.771549224853516L-21.579715728759766,-39.87703323364258L-21.569665908813477,-39.98335647583008L-21.56631088256836,-40.0900993347168L-21.569665908813477,-40.196842193603516L-21.579715728759766,-40.303165435791016L-21.596424102783203,-40.40864562988281L-21.619720458984375,-40.51287078857422L-21.64951515197754,-40.61542892456055L-21.685691833496094,-40.715911865234375L-21.728105545043945,-40.81392288208008L-21.77659034729004,-40.909080505371094L-21.83095359802246,-41.00100326538086L-21.89098358154297,-41.089332580566406L-21.956439971923828,-41.17372131347656L-22.02706527709961,-41.25382995605469L-22.102581024169922,-41.329345703125Z" />
<line x1="-113.7508316040039" y1="82.92208099365234" x2="-103.7508316040039" y2="82.92208099365234" stroke="#96D9D7" />
<text x="-101.7508316040039" y="84.92208099365234" style="font: bold 2mm sans-serif;fill:#96D9D7">= 1cm</text>
</svg>
