<svg xmlns="http://www.w3.org/2000/svg" xmlns:xlink="http://www.w3.org/1999/xlink"
viewBox="-44.303558349609375 -63.7599983215332 130.44667053222656 156.62641525268555" width="130.44667053222656mm" height="156.62641525268555mm"
>
<path fill="#8080F7" d="M75.75141143798828,59.29218673706055L54.932716369628906,81.33537292480469L44.379730224609375,82.86641693115234L38.40888595581055,77.8563232421875L35.4959716796875,75.52053833007812L16.215110778808594,77.02735137939453L0.35100555419921875,74.23008728027344L-2.090562582015991,72.5652847290039L1.917062759399414,53.86427307128906L-3.7467267513275146,53.706085205078125L-8.231114387512207,53.784156799316406L-19.415616989135742,53.55152893066406L-19.479326248168945,53.55020523071289L-21.399646759033203,51.07227325439453L-26.773178100585938,57.77049255371094L-26.949878692626953,57.970916748046875L-27.138813018798828,58.15985107421875L-27.339237213134766,58.336551666259766L-27.55036163330078,58.50031661987305L-27.771350860595703,58.65049743652344L-28.0013370513916,58.7865104675293L-28.239408493041992,58.90781784057617L-28.48462677001953,59.01393127441406L-28.736024856567383,59.10443878173828L-28.99260711669922,59.178985595703125L-29.253366470336914,59.23727035522461L-29.517269134521484,59.27906799316406L-29.783279418945312,59.30421447753906L-30.051340103149414,59.31218338012695L-30.317401885986328,59.30421447753906L-30.58340835571289,59.27906799316406L-30.847312927246094,59.237274169921875L-31.10807228088379,59.178985595703125L-31.364656448364258,59.10443878173828L-31.61605453491211,59.01393127441406L-31.861270904541016,58.90781784057617L-32.099342346191406,58.78651428222656L-32.32933044433594,58.6505012512207L-32.55031967163086,58.50031661987305L-32.761444091796875,58.336551666259766L-32.96186828613281,58.15985107421875L-33.15080261230469,57.97092056274414L-33.32749938964844,57.77049255371094L-33.49126434326172,57.55936813354492L-33.641448974609375,57.33837890625L-33.777462005615234,57.108394622802734L-33.898765563964844,56.870323181152344L-34.004878997802734,56.62510681152344L-34.09539031982422,56.37371063232422L-34.1699333190918,56.11712646484375L-34.22822189331055,55.85636520385742L-34.27001953125,55.59246063232422L-34.295162200927734,55.326454162597656L-34.303558349609375,55.059391021728516L-34.295162200927734,54.792327880859375L-34.27001953125,54.52632141113281L-34.22822189331055,54.262420654296875L-34.1699333190918,54.00165939331055L-34.09539031982422,53.74507141113281L-34.004878997802734,53.49367904663086L-33.898765563964844,53.24845886230469L-33.777462005615234,53.0103874206543L-33.641448974609375,52.78040313720703L-33.49126434326172,52.55941390991211L-33.32749938964844,52.348289489746094L-33.15080261230469,52.147865295410156L-32.96186828613281,51.95893096923828L-23.9852237701416,43.51670837402344L-24.080516815185547,42.830318450927734L-19.813701629638672,37.19874954223633L-16.430280685424805,26.442182540893555L-13.35926342010498,8.548507690429688L-13.182477951049805,-8.754127502441406L-16.026262283325195,-27.563289642333984L-17.655193328857422,-33.192996978759766L-24.080516815185547,-42.88825225830078L-23.271621704101562,-48.37383270263672L-19.479896545410156,-53.378353118896484L-8.295392990112305,-53.14572525024414L-1.6800482273101807,-53.16474151611328L1.255157709121704,-53.082759857177734L1.2774208784103394,-53.0978889465332L1.5055094957351685,-53.23278045654297L1.7454754114151,-53.35520553588867L1.9906939268112183,-53.46131896972656L2.242091417312622,-53.55182647705078L2.498676300048828,-53.626373291015625L2.759434223175049,-53.68465805053711L3.0233376026153564,-53.72645568847656L3.2893457412719727,-53.75160217285156L3.556407928466797,-53.7599983215332L3.823470115661621,-53.75160217285156L4.089477062225342,-53.72645568847656L4.35338020324707,-53.684661865234375L4.614139556884766,-53.626373291015625L4.870724201202393,-53.55182647705078L5.122121810913086,-53.46131896972656L5.367339611053467,-53.35520553588867L5.605409622192383,-53.2338981628418L5.835394859313965,-53.0978889465332L6.053490161895752,-52.95016860961914L7.540553092956543,-52.90721130371094L14.134145736694336,-52.92740249633789L21.251972198486328,-52.64839172363281L21.604228973388672,-52.26566696166992L22.232812881469727,-52.22740936279297L22.925323486328125,-52.170570373535156L25.360849380493164,-51.868125915527344L27.52994155883789,-49.6820068359375L29.11068344116211,-42.225826263427734L37.108821868896484,-34.22768783569336L40.2406120300293,-31.073280334472656L40.27373123168945,-31.106399536132812L40.474693298339844,-31.28363609313965L40.68581771850586,-31.44740104675293L40.90680694580078,-31.597585678100586L41.13679122924805,-31.733598709106445L41.37486267089844,-31.854900360107422L41.620079040527344,-31.961017608642578L41.87147521972656,-32.0515251159668L42.1280632019043,-32.126068115234375L42.388824462890625,-32.184356689453125L42.65272521972656,-32.22615432739258L42.918731689453125,-32.25129699707031L43.18679428100586,-32.2592658996582L43.452857971191406,-32.25129699707031L43.7188606262207,-32.22615432739258L43.982765197753906,-32.184356689453125L44.243526458740234,-32.126068115234375L44.50011444091797,-32.0515251159668L44.75151062011719,-31.961017608642578L44.996726989746094,-31.854900360107422L45.234798431396484,-31.733598709106445L45.46478271484375,-31.597585678100586L45.68577194213867,-31.44740104675293L45.89689636230469,-31.28363609313965L46.097320556640625,-31.1069393157959L46.2862548828125,-30.91800308227539L46.462955474853516,-30.717578887939453L46.6267204284668,-30.506452560424805L46.77690124511719,-30.285463333129883L46.91291427612305,-30.055479049682617L47.03422164916992,-29.817407608032227L47.14033508300781,-29.572189331054688L47.23084259033203,-29.320791244506836L47.305389404296875,-29.064208984375L47.363677978515625,-28.803449630737305L47.40547180175781,-28.539546966552734L47.43061828613281,-28.273536682128906L47.43901443481445,-28.0064754486084L47.43061828613281,-27.73941421508789L47.40547180175781,-27.473405838012695L47.363677978515625,-27.209503173828125L47.305389404296875,-26.94874382019043L47.23084259033203,-26.69215965270996L47.14033508300781,-26.44076156616211L47.03422164916992,-26.19554328918457L46.91291809082031,-25.95747184753418L46.77690505981445,-25.727487564086914L46.6267204284668,-25.506498336791992L46.462955474853516,-25.295373916625977L46.2862548828125,-25.094947814941406L46.23219299316406,-25.040212631225586L49.362762451171875,-21.88526153564453L55.38029479980469,-7.2318549156188965L55.38029479980469,10.365346908569336L49.362762451171875,25.048357009887695L46.08003234863281,28.370893478393555L62.51597213745117,36.84906005859375L64.04159545898438,38.12527084350586L64.04644775390625,38.12934112548828L73.56779479980469,46.11870193481445L73.63115692138672,46.17186737060547L76.14311218261719,49.23481369018555Z M38.96207809448242,37.016441345214844L39.05723571777344,36.96795654296875L39.09003448486328,36.94855880737305L39.14916229248047,36.91359329223633L39.23748779296875,36.85356521606445L39.321876525878906,36.788108825683594L39.40198516845703,36.71748352050781L39.477500915527344,36.6419677734375L39.548126220703125,36.561859130859375L39.613582611083984,36.47747039794922L39.67361068725586,36.38914108276367L39.72797775268555,36.297218322753906L39.776458740234375,36.20206069946289L39.81887435913086,36.10404968261719L39.85504913330078,36.00356674194336L39.88484573364258,35.90100860595703L39.90814208984375,35.796783447265625L39.92485046386719,35.69130325317383L39.934898376464844,35.58498001098633L39.938255310058594,35.47823715209961L39.934898376464844,35.37149429321289L39.92485046386719,35.26517105102539L39.90814208984375,35.15968704223633L39.88484573364258,35.05546569824219L39.85504913330078,34.95290756225586L39.81887435913086,34.85242462158203L39.776458740234375,34.75441360473633L39.72797393798828,34.65925598144531L39.67361068725586,34.56733322143555L39.613582611083984,34.47900390625L39.548126220703125,34.394615173339844L39.477500915527344,34.31450653076172L39.40198516845703,34.238990783691406L39.321876525878906,34.168365478515625L39.23748779296875,34.102909088134766L39.1491584777832,34.04288101196289L39.05723571777344,33.9885139465332L38.96207809448242,33.940032958984375L38.86406707763672,33.89761734008789L38.76358413696289,33.86144256591797L38.66102600097656,33.83164596557617L38.556800842285156,33.808349609375L38.45132064819336,33.79164123535156L38.34499740600586,33.781593322753906L38.23825454711914,33.778236389160156L38.13151168823242,33.781593322753906L38.02518844604492,33.79164123535156L37.91970443725586,33.808349609375L37.81548309326172,33.83164596557617L37.71292495727539,33.86144256591797L37.61244201660156,33.89761734008789L37.51443099975586,33.940032958984375L37.419273376464844,33.98851776123047L37.32735061645508,34.04288101196289L37.23902130126953,34.102909088134766L37.154632568359375,34.168365478515625L37.07452392578125,34.238990783691406L36.99900817871094,34.31450653076172L36.928382873535156,34.394615173339844L36.8629264831543,34.47900390625L36.80289840698242,34.56733322143555L36.74853515625,34.65925598144531L36.700050354003906,34.75441360473633L36.65763473510742,34.85242462158203L36.6214599609375,34.95290756225586L36.5916633605957,35.05546569824219L36.56836700439453,35.159690856933594L36.551658630371094,35.26517105102539L36.54161071777344,35.37149429321289L36.53825378417969,35.47823715209961L36.54161071777344,35.58498001098633L36.551658630371094,35.69130325317383L36.56836700439453,35.79678726196289L36.5916633605957,35.9010124206543L36.6214599609375,36.00356674194336L36.65763473510742,36.10404968261719L36.700050354003906,36.20206069946289L36.74853515625,36.297218322753906L36.80289840698242,36.38914108276367L36.8629264831543,36.47747039794922L36.928382873535156,36.561859130859375L36.99900817871094,36.6419677734375L37.07452392578125,36.71748352050781L37.154632568359375,36.788108825683594L37.23902130126953,36.85356521606445L37.32735061645508,36.91359329223633L37.39799118041992,36.95537567138672L37.419273376464844,36.967960357666016L37.51443099975586,37.01644515991211L37.61244201660156,37.05885696411133L37.71292495727539,37.09503173828125L37.81548309326172,37.12482833862305L37.919708251953125,37.14812469482422L38.02518844604492,37.164833068847656L38.13151168823242,37.17488098144531L38.23825454711914,37.17823791503906L38.34499740600586,37.17488098144531L38.45132064819336,37.164833068847656L38.55680465698242,37.14812469482422L38.66102981567383,37.12482833862305L38.76358413696289,37.09503173828125L38.86406707763672,37.05885696411133Z M44.349525451660156,-26.767229080200195L44.42504119873047,-26.842744827270508L44.49566650390625,-26.922855377197266L44.56112289428711,-27.007240295410156L44.621150970458984,-27.095569610595703L44.67551803588867,-27.1874942779541L44.7239990234375,-27.282649993896484L44.766414642333984,-27.380664825439453L44.802589416503906,-27.48114585876465L44.8323860168457,-27.583702087402344L44.855682373046875,-27.68792724609375L44.87239074707031,-27.79340934753418L44.88243865966797,-27.89973258972168L44.88579559326172,-28.0064754486084L44.88243865966797,-28.11322021484375L44.87239074707031,-28.219541549682617L44.855682373046875,-28.325023651123047L44.8323860168457,-28.429248809814453L44.802589416503906,-28.53180503845215L44.766414642333984,-28.632287979125977L44.7239990234375,-28.730300903320312L44.675514221191406,-28.825456619262695L44.621150970458984,-28.917381286621094L44.56112289428711,-29.00571060180664L44.49566650390625,-29.09009552001953L44.42504119873047,-29.17020606994629L44.349525451660156,-29.2457218170166L44.26941680908203,-29.316349029541016L44.185028076171875,-29.381803512573242L44.09669876098633,-29.44183349609375L44.00477600097656,-29.496196746826172L43.90961837768555,-29.544681549072266L43.811607360839844,-29.587095260620117L43.711124420166016,-29.623271942138672L43.60856628417969,-29.653066635131836L43.50434112548828,-29.676362991333008L43.398860931396484,-29.693071365356445L43.292537689208984,-29.703121185302734L43.185794830322266,-29.70647621154785L43.07905197143555,-29.703121185302734L42.97272872924805,-29.693069458007812L42.867244720458984,-29.676362991333008L42.763023376464844,-29.653066635131836L42.660465240478516,-29.623271942138672L42.55998229980469,-29.587095260620117L42.461971282958984,-29.544681549072266L42.36681365966797,-29.496196746826172L42.2748908996582,-29.44183349609375L42.186561584472656,-29.381803512573242L42.1021728515625,-29.316347122192383L42.022064208984375,-29.2457218170166L41.94654846191406,-29.17020606994629L41.87592315673828,-29.09009552001953L41.81046676635742,-29.00571060180664L41.75043869018555,-28.917381286621094L41.696075439453125,-28.825456619262695L41.64759063720703,-28.730300903320312L41.60517501831055,-28.632287979125977L41.569000244140625,-28.53180503845215L41.53920364379883,-28.429248809814453L41.515907287597656,-28.325023651123047L41.49919891357422,-28.219541549682617L41.48915100097656,-28.11322021484375L41.48579406738281,-28.0064754486084L41.48915100097656,-27.899730682373047L41.49919891357422,-27.79340934753418L41.515907287597656,-27.68792724609375L41.53920364379883,-27.583702087402344L41.56884765625,-27.48167610168457L41.60517501831055,-27.38066291809082L41.64759063720703,-27.282649993896484L41.696075439453125,-27.1874942779541L41.75043869018555,-27.095569610595703L41.81046676635742,-27.007240295410156L41.87592315673828,-26.922855377197266L41.94654846191406,-26.842744827270508L42.022064208984375,-26.767229080200195L42.1021728515625,-26.696603775024414L42.186561584472656,-26.631147384643555L42.2748908996582,-26.571117401123047L42.36681365966797,-26.516754150390625L42.461971282958984,-26.46826934814453L42.55998229980469,-26.42585563659668L42.660465240478516,-26.389678955078125L42.763023376464844,-26.35988426208496L42.86724853515625,-26.33658790588379L42.97272872924805,-26.31987953186035L43.07905197143555,-26.309829711914062L43.185794830322266,-26.306474685668945L43.292537689208984,-26.309829711914062L43.398860931396484,-26.319881439208984L43.50434494018555,-26.33658790588379L43.60857009887695,-26.35988426208496L43.711124420166016,-26.389678955078125L43.811607360839844,-26.42585563659668L43.90961837768555,-26.46826934814453L44.00477600097656,-26.516754150390625L44.096702575683594,-26.571117401123047L44.185028076171875,-26.631147384643555L44.26941680908203,-26.696603775024414Z M-4.922577857971191,-1.4790211915969849L-4.993203163146973,-1.398911952972412L-5.05866003036499,-1.314526081085205L-5.118688583374023,-1.2261966466903687L-5.1730523109436035,-1.1342724561691284L-5.221537113189697,-1.0391159057617188L-5.263951301574707,-0.9411028623580933L-5.300127029418945,-0.8406201601028442L-5.329922676086426,-0.7380639910697937L-5.353219509124756,-0.6338393688201904L-5.3699259757995605,-0.5283576846122742L-5.379976272583008,-0.4220350682735443L-5.383331298828125,-0.3152911961078644L-5.379976272583008,-0.20854713022708893L-5.3699259757995605,-0.10222433507442474L-5.353219032287598,0.003257572650909424L-5.329922199249268,0.10748232156038284L-5.300127029418945,0.2100377380847931L-5.263950824737549,0.3105206787586212L-5.221536636352539,0.4085339605808258L-5.1730523109436035,0.5036904811859131L-5.118688583374023,0.5956141948699951L-5.05866003036499,0.6839437484741211L-4.993203163146973,0.7683297395706177L-4.922577381134033,0.8484392166137695L-4.847060680389404,0.9239559173583984L-4.766952037811279,0.9945812225341797L-4.682565689086914,1.0600377321243286L-4.594236373901367,1.1200664043426514L-4.502312183380127,1.1744303703308105L-4.407155513763428,1.2229150533676147L-4.30914306640625,1.2653287649154663L-4.208660125732422,1.3015049695968628L-4.106103897094727,1.3313002586364746L-4.00187873840332,1.3545972108840942L-3.8963968753814697,1.371303915977478L-3.7900750637054443,1.3813543319702148L-3.68333101272583,1.3847088813781738L-3.576586961746216,1.3813543319702148L-3.470264196395874,1.3713037967681885L-3.3647823333740234,1.3545970916748047L-3.2605574131011963,1.331300139427185L-3.1580021381378174,1.3015049695968628L-3.0575191974639893,1.2653287649154663L-2.959505796432495,1.222914695739746L-2.8643500804901123,1.1744301319122314L-2.7724246978759766,1.1200661659240723L-2.684096097946167,1.0600377321243286L-2.599709987640381,0.9945812225341797L-2.5196006298065186,0.9239553213119507L-2.444084644317627,0.8484388589859009L-2.373457908630371,0.7683295011520386L-2.30800199508667,0.6839437484741211L-2.2479734420776367,0.5956141948699951L-2.1936094760894775,0.5036897659301758L-2.145125150680542,0.4085334539413452L-2.102710723876953,0.31052032113075256L-2.066534996032715,0.2100377380847931L-2.0367395877838135,0.107481449842453L-2.0134425163269043,0.0032566706649959087L-1.9967360496520996,-0.10222481936216354L-1.9866855144500732,-0.20854759216308594L-1.9833309650421143,-0.3152911961078644L-1.9866855144500732,-0.422035276889801L-1.9967360496520996,-0.5283580422401428L-2.0134425163269043,-0.63383948802948L-2.0367398262023926,-0.7380642890930176L-2.066534996032715,-0.8406201601028442L-2.1027112007141113,-0.9411031007766724L-2.145124912261963,-1.0391159057617188L-2.1936097145080566,-1.134272575378418L-2.247973680496216,-1.2261970043182373L-2.30800199508667,-1.314526081085205L-2.3734586238861084,-1.3989120721817017L-2.4440841674804688,-1.4790211915969849L-2.5196008682250977,-1.5545380115509033L-2.599710464477539,-1.6251639127731323L-2.684096097946167,-1.6906200647354126L-2.772425651550293,-1.7506487369537354L-2.8643500804901123,-1.805012583732605L-2.9595062732696533,-1.8534972667694092L-3.0575191974639893,-1.8959112167358398L-3.1580021381378174,-1.9320873022079468L-3.2605583667755127,-1.9618825912475586L-3.3647830486297607,-1.9851795434951782L-3.4702646732330322,-2.0018863677978516L-3.576586961746216,-2.011936664581299L-3.68333101272583,-2.015291213989258L-3.7900750637054443,-2.011936664581299L-3.896397829055786,-2.0018861293792725L-4.0018792152404785,-1.9851795434951782L-4.106103897094727,-1.9618825912475586L-4.208660125732422,-1.9320873022079468L-4.30914306640625,-1.8959112167358398L-4.407155990600586,-1.8534971475601196L-4.502312183380127,-1.8050124645233154L-4.594236373901367,-1.7506487369537354L-4.682565689086914,-1.6906200647354126L-4.766952037811279,-1.6251636743545532L-4.8470611572265625,-1.5545378923416138Z M2.246535539627075,-50.59040069580078L2.1810789108276367,-50.506011962890625L2.1210503578186035,-50.41768264770508L2.0666866302490234,-50.32575988769531L2.0182018280029297,-50.2306022644043L1.975787878036499,-50.132591247558594L1.939611792564392,-50.032108306884766L1.9098165035247803,-49.92955017089844L1.8865195512771606,-49.82532501220703L1.8698128461837769,-49.719844818115234L1.85976243019104,-49.613521575927734L1.856407880783081,-49.506778717041016L1.85976243019104,-49.4000358581543L1.8698129653930664,-49.2937126159668L1.8865196704864502,-49.188228607177734L1.9098167419433594,-49.08400344848633L1.939611792564392,-48.981449127197266L1.9757879972457886,-48.88096618652344L2.018202066421509,-48.782955169677734L2.0666866302490234,-48.68779754638672L2.1210503578186035,-48.59587478637695L2.1810789108276367,-48.507545471191406L2.246535539627075,-48.42315673828125L2.3171615600585938,-48.343048095703125L2.3926782608032227,-48.26753234863281L2.4727869033813477,-48.19690704345703L2.557173013687134,-48.13145065307617L2.6455025672912598,-48.0714225769043L2.737426996231079,-48.01705551147461L2.8325836658477783,-47.968570709228516L2.930596113204956,-47.9261589050293L3.031079053878784,-47.889984130859375L3.1336352825164795,-47.86018753051758L3.2378599643707275,-47.836891174316406L3.3433420658111572,-47.82018280029297L3.4496638774871826,-47.81013488769531L3.556407928466797,-47.80677795410156L3.663151979446411,-47.81013488769531L3.769474744796753,-47.82018280029297L3.8749566078186035,-47.836891174316406L3.9791815280914307,-47.86018753051758L4.081737041473389,-47.889984130859375L4.182219982147217,-47.9261589050293L4.280232906341553,-47.96857452392578L4.375389099121094,-48.017059326171875L4.46731424331665,-48.0714225769043L4.555643081665039,-48.13145065307617L4.640028953552246,-48.19690704345703L4.7201385498046875,-48.26753234863281L4.795654296875,-48.343048095703125L4.866281032562256,-48.42315673828125L4.931736946105957,-48.507545471191406L4.99176549911499,-48.59587478637695L5.04612922668457,-48.68779754638672L5.094614028930664,-48.782955169677734L5.137028217315674,-48.88096618652344L5.173203945159912,-48.981449127197266L5.202999114990234,-49.084007263183594L5.226296424865723,-49.188232421875L5.243002891540527,-49.2937126159668L5.253053665161133,-49.4000358581543L5.256407737731934,-49.506778717041016L5.253053665161133,-49.613521575927734L5.243002891540527,-49.719844818115234L5.226296424865723,-49.8253288269043L5.202999114990234,-49.92955017089844L5.173203945159912,-50.032108306884766L5.137027740478516,-50.132591247558594L5.094614028930664,-50.2306022644043L5.04612922668457,-50.32575988769531L4.991765022277832,-50.41768264770508L4.931736946105957,-50.506011962890625L4.866280555725098,-50.59040069580078L4.795654773712158,-50.670509338378906L4.721695899963379,-50.744468688964844L4.640028476715088,-50.816650390625L4.555643081665039,-50.88210678100586L4.467313289642334,-50.942134857177734L4.375389099121094,-50.99650192260742L4.2802324295043945,-51.04498291015625L4.182219982147217,-51.087398529052734L4.081737041473389,-51.123573303222656L3.9791805744171143,-51.15336990356445L3.874955892562866,-51.176666259765625L3.7694742679595947,-51.19337463378906L3.663151979446411,-51.20342254638672L3.556407928466797,-51.20677947998047L3.4496638774871826,-51.20342254638672L3.343341112136841,-51.19337463378906L3.2378597259521484,-51.176666259765625L3.1336352825164795,-51.15336990356445L3.031079053878784,-51.123573303222656L2.930596113204956,-51.087398529052734L2.832582712173462,-51.04498291015625L2.737426519393921,-50.996498107910156L2.6455025672912598,-50.942134857177734L2.557173013687134,-50.88210678100586L2.4727869033813477,-50.816650390625L2.3926777839660645,-50.74602508544922L2.3171610832214355,-50.670509338378906Z M-28.512134552001953,54.335567474365234L-28.560619354248047,54.24040985107422L-28.61498260498047,54.14848709106445L-28.675012588500977,54.060157775878906L-28.740468978881836,53.97576904296875L-28.811094284057617,53.895660400390625L-28.88661003112793,53.82014465332031L-28.966720581054688,53.74951934814453L-29.051105499267578,53.68406295776367L-29.139434814453125,53.6240348815918L-29.231359481811523,53.56966781616211L-29.326515197753906,53.52118682861328L-29.424528121948242,53.4787712097168L-29.52501106262207,53.442596435546875L-29.627567291259766,53.41279983520508L-29.731792449951172,53.389503479003906L-29.8372745513916,53.37279510498047L-29.94359588623047,53.36274719238281L-30.05034065246582,53.35939025878906L-30.157085418701172,53.36274719238281L-30.26340675354004,53.37279510498047L-30.36888885498047,53.389503479003906L-30.473114013671875,53.41279983520508L-30.57567024230957,53.442596435546875L-30.6761531829834,53.4787712097168L-30.774166107177734,53.52118682861328L-30.869321823120117,53.569671630859375L-30.961246490478516,53.6240348815918L-31.049575805664062,53.68406295776367L-31.09076499938965,53.71601104736328L-31.133960723876953,53.74951934814453L-31.21407127380371,53.82014465332031L-31.289587020874023,53.895660400390625L-31.360212326049805,53.97576904296875L-31.425668716430664,54.060157775878906L-31.470836639404297,54.126617431640625L-31.485698699951172,54.14848709106445L-31.540061950683594,54.24040985107422L-31.56488037109375,54.28911590576172L-31.588546752929688,54.335567474365234L-31.63096046447754,54.43357849121094L-31.64124870300293,54.462154388427734L-31.667137145996094,54.534061431884766L-31.696931838989258,54.636619567871094L-31.698726654052734,54.64464569091797L-31.72022819519043,54.7408447265625L-31.735286712646484,54.83591079711914L-31.736936569213867,54.8463249206543L-31.746986389160156,54.9526481628418L-31.74956512451172,55.03470230102539L-31.750341415405273,55.059391021728516L-31.746986389160156,55.166133880615234L-31.740026473999023,55.2397575378418L-31.736934661865234,55.272457122802734L-31.72022819519043,55.3779411315918L-31.696931838989258,55.4821662902832L-31.667137145996094,55.584720611572266L-31.63096046447754,55.685203552246094L-31.588546752929688,55.7832145690918L-31.540061950683594,55.87837219238281L-31.485698699951172,55.97029495239258L-31.425668716430664,56.058624267578125L-31.360212326049805,56.14301300048828L-31.289587020874023,56.223121643066406L-31.214069366455078,56.29863739013672L-31.133960723876953,56.3692626953125L-31.049575805664062,56.43471908569336L-30.961246490478516,56.494747161865234L-30.869321823120117,56.54911422729492L-30.7741641998291,56.597599029541016L-30.6761531829834,56.640010833740234L-30.57567024230957,56.676185607910156L-30.473114013671875,56.70598220825195L-30.36888885498047,56.729278564453125L-30.26340675354004,56.74598693847656L-30.157085418701172,56.75603485107422L-30.05034065246582,56.75939178466797L-29.94359588623047,56.75603485107422L-29.8372745513916,56.74598693847656L-29.731792449951172,56.729278564453125L-29.627567291259766,56.70598220825195L-29.52501106262207,56.676185607910156L-29.424528121948242,56.640010833740234L-29.326515197753906,56.59759521484375L-29.231359481811523,56.549110412597656L-29.139434814453125,56.494747161865234L-29.051105499267578,56.43471908569336L-28.966720581054688,56.3692626953125L-28.88661003112793,56.29863739013672L-28.811094284057617,56.223121643066406L-28.740467071533203,56.14301300048828L-28.675012588500977,56.058624267578125L-28.61498260498047,55.97029495239258L-28.560619354248047,55.87837219238281L-28.512134552001953,55.7832145690918L-28.4697208404541,55.685203552246094L-28.433544158935547,55.584720611572266L-28.403749465942383,55.48216247558594L-28.38045310974121,55.37793731689453L-28.363746643066406,55.272457122802734L-28.353694915771484,55.166133880615234L-28.350339889526367,55.059391021728516L-28.353694915771484,54.9526481628418L-28.363746643066406,54.8463249206543L-28.38045310974121,54.740840911865234L-28.403749465942383,54.636619567871094L-28.433544158935547,54.534061431884766L-28.4697208404541,54.43357849121094Z" />
<line x1="-34.303558349609375" y1="87.86641693115234" x2="-24.303558349609375" y2="87.86641693115234" stroke="#96D9D7" />
<text x="-22.303558349609375" y="89.86641693115234" style="font: bold 2mm sans-serif;fill:#96D9D7">= 1cm</text>
</svg>
